<svg width="31" height="18" viewBox="0 0 31 18" fill="none" xmlns="http://www.w3.org/2000/svg">
<path id="Vector" fill-rule="evenodd" clip-rule="evenodd" d="M0.903268 0.385561C0.096413 0.831806 -0.176273 1.52032 0.110934 2.3864C0.375045 3.1832 2.42345 7.35753 3.19726 8.67614C4.73046 11.2889 6.42283 13.5393 7.77231 14.7599C8.73203 15.6281 10.2029 16.568 11.2906 17.0085C12.6758 17.5693 13.7234 17.7452 15.6761 17.7446C17.1508 17.7443 17.4141 17.7157 17.7327 17.5215C18.3107 17.1691 18.503 16.7717 18.576 15.7794C18.6119 15.2899 18.6714 14.8593 18.7082 14.8225C18.8249 14.706 19.3904 15.0751 20.5687 16.037C21.1975 16.5503 22.0464 17.1318 22.4552 17.3292L23.1984 17.6879L26.1643 17.7237C28.6495 17.7537 29.2067 17.7302 29.6019 17.5794C30.5369 17.2223 31.1126 16.2734 30.918 15.4102C30.7422 14.6315 30.2124 13.9725 28.2323 12.0707L26.2334 10.151L26.423 9.86064C26.5274 9.70092 27.0865 8.97855 27.6655 8.25539C29.5652 5.88296 30.6305 4.00057 30.9369 2.47456C31.1078 1.6238 30.9348 1.05133 30.3783 0.626576L29.9624 0.309185L26.8724 0.273628C22.6896 0.225493 22.5684 0.276601 21.83 2.39818C21.2749 3.99302 20.9612 4.67766 20.359 5.60845C19.7462 6.55582 18.8607 7.50822 18.6904 7.40304C18.609 7.35273 18.5678 6.45429 18.5678 4.72853C18.5678 2.26064 18.5549 2.10423 18.3106 1.6206C18.1692 1.34048 17.8784 0.995076 17.6645 0.852959C16.9611 0.385562 16.4625 0.309299 14.1088 0.309185C11.5161 0.309185 11.0183 0.422034 10.1517 1.20659C9.68878 1.62563 9.62029 1.74728 9.6092 2.16848C9.594 2.74747 9.8636 3.06829 10.5905 3.33629C10.9777 3.47898 11.1073 3.5988 11.2155 3.91356C11.3704 4.36484 11.4109 6.97668 11.2665 7.20444C11.1956 7.31614 11.0818 7.25188 10.8177 6.95107C9.86611 5.8673 9.11848 4.51324 8.44448 2.65303C7.92667 1.22409 7.6494 0.81317 6.98707 0.492463C6.52504 0.268826 6.30438 0.252248 3.81124 0.25545C2.07405 0.257736 1.05156 0.303583 0.903268 0.385561ZM6.50046 3.40512C7.42394 5.99238 8.99329 8.43284 10.1816 9.12913C10.8582 9.52576 11.8899 9.56246 12.3696 9.20722C13.1793 8.60743 13.4228 7.79245 13.4228 5.68288C13.4228 4.18911 13.2836 3.23019 13.0022 2.786C12.909 2.63908 12.8668 2.48496 12.9082 2.44357C13.0452 2.30648 15.5296 2.28373 16.017 2.41499L16.4918 2.54258L16.5294 5.25607C16.5624 7.63868 16.593 8.01838 16.7801 8.36973C17.2761 9.30086 18.0328 9.72961 18.9004 9.57115C20.5344 9.27262 22.5661 6.63528 23.7013 3.33903L24.0361 2.3672L26.4427 2.33633L28.8493 2.30557L28.6944 2.74461C28.2674 3.95495 27.6273 4.96063 25.8436 7.22365C25.1757 8.07109 24.5457 8.94014 24.4438 9.15497C23.8426 10.4219 24.1871 11.1634 26.2314 13.0031C27.7171 14.3401 28.7436 15.3952 28.7436 15.5851C28.7436 15.6417 27.6405 15.6871 26.2643 15.6871C23.3281 15.6871 23.46 15.728 21.6549 14.2568C20.2061 13.0761 19.4721 12.6881 18.6872 12.6881C17.5622 12.6881 16.8118 13.4736 16.5942 14.8794L16.4654 15.7122L14.9726 15.6599C13.7791 15.6179 13.3017 15.549 12.5907 15.3154C10.1157 14.5026 7.79472 12.261 5.51433 8.48132C4.77185 7.25063 2.91898 3.69439 2.52098 2.73604L2.34182 2.30454L4.23585 2.33587L6.12991 2.3672L6.50046 3.40512Z" fill="#121212"/>
</svg>
